<svg xmlns="http://www.w3.org/2000/svg" viewBox="0 0 280 180" width="100%" role="img" aria-label="紫灰工作室章节标题复用装饰" style="display:block;width:100%;height:auto;">

<g data-unit="violet.decor.planet.v20.exact-ring-system"><ellipse data-unit="violet.decor.planet.v20.true-closed-ring" cx="126" cy="78" rx="42.9" ry="12.6" fill="none" stroke="#DDD7E1" stroke-width="1.05" transform="rotate(-8 126 78)" /><g data-unit="violet.decor.planet.v20.assembled"><circle data-unit="violet.decor.planet.v20.base" cx="126" cy="78" r="30" fill="#705B8C" /><path data-unit="violet.decor.planet.v20.topography-upper" d="M104.4 69.6C114.6 62.4 125.4 75.6 144 68.4" fill="none" stroke="#DDD7E1" stroke-width="1.05" stroke-linecap="round" /><path data-unit="violet.decor.planet.v20.topography-middle" d="M102.6 78.9C115.2 72 125.4 84.6 147.9 77.4" fill="none" stroke="#DDD7E1" stroke-width="1.05" stroke-linecap="round" /><path data-unit="violet.decor.planet.v20.topography-lower" d="M108.6 90C119.4 84 129.6 94.8 142.8 87.9" fill="none" stroke="#B4C185" stroke-width=".9" stroke-linecap="round" /><circle data-unit="violet.decor.planet.v20.outline" cx="126" cy="78" r="30" fill="none" stroke="#352E3E" stroke-width="1.15" /><animateTransform attributeName="transform" type="rotate" from="0 126 78" to="360 126 78" dur="7.2s" begin="0s" repeatCount="indefinite" additive="sum"></animateTransform></g><path data-unit="violet.decor.planet.v20.exact-foreground-half" d="M168.48 72.03A42.9 12.6 -8 0 1 83.52 83.97" fill="none" stroke="#352E3E" stroke-width="1.2" stroke-linecap="round" /><g data-unit="violet.decor.planet.v20.ring-nodes"><circle cx="83.52" cy="83.97" r="1.56" fill="#B4C185" stroke="#352E3E" stroke-width=".55" /><circle cx="168.48" cy="72.03" r="1.29" fill="#D88963" /></g></g>
<path data-unit="violet.decor.dotted-orbit.v20" d="M64 91C70 37 138 20 183 51C198 61 205 78 205 94" fill="none" stroke="#705B8C" stroke-width=".8" stroke-dasharray="2.2 3.5" />
<path data-unit="violet.decor.open-orbit.v20" d="M54 84C75 123 143 130 190 102" fill="none" stroke="#DDD7E1" stroke-width=".78" />
<g data-unit="violet.decor.orbit-nodes.v20"><circle cx="59" cy="89" r="3.1" fill="#B4C185" stroke="#352E3E" stroke-width=".6" /><circle cx="194" cy="96" r="3" fill="#D88963" /><circle cx="202" cy="49" r="3" fill="#352E3E" /></g>
<path data-unit="violet.decor.left-star.v20" d="M63 33.5L64.32 37.68L68.5 39L64.32 40.32L63 44.5L61.68 40.32L57.5 39L61.68 37.68Z" fill="#705B8C" />
<path data-unit="violet.decor.right-star.v20" d="M210 106L211.2 109.8L215 111L211.2 112.2L210 116L208.8 112.2L205 111L208.8 109.8Z" fill="#B4C185" />
<g data-unit="violet.decor.dot-field.v20" transform="translate(218 66)" fill="#705B8C"><circle cx="0" cy="0" r=".9" /><circle cx="7" cy="0" r=".75" /><circle cx="14" cy="0" r=".6" /><circle cx="0" cy="7" r=".7" /><circle cx="7" cy="7" r=".55" /><circle cx="14" cy="7" r=".4" /></g>
<path data-unit="violet.decor.continuity-spine.v20" d="M18 154C54 145 78 159 105 153C133 147 157 160 184 153C212 146 235 158 262 151" fill="none" stroke="#705B8C" stroke-width=".82" opacity=".34" /><path data-unit="violet.decor.continuity-spine.v20.motion-trail.v4" data-motion-role="flow-trail" d="M18 154C54 145 78 159 105 153C133 147 157 160 184 153C212 146 235 158 262 151" fill="none" stroke="#705B8C" stroke-width="1.82" stroke-linecap="round" opacity=".94" stroke-dasharray="44.8 360"><animate attributeName="stroke-dashoffset" from="0" to="-404.8" dur="3.8s" begin="0s" repeatCount="indefinite"></animate></path>
<path data-unit="violet.decor.spine-echo.v20" d="M31 164C82 158 120 166 159 161C201 156 229 162 251 158" fill="none" stroke="#B4C185" stroke-width=".48" />
</svg>
