<svg xmlns="http://www.w3.org/2000/svg" viewBox="0 0 280 180" width="100%" role="img" aria-label="植物手记章节标题复用装饰" style="display:block;width:100%;height:auto;">
<path data-unit="botanical-notes.decor.continuity-spine.v1" d="M22 153C64.5 146 88.1 157 116.4 153C147.1 148 173.0 158 201.4 153C225.0 149 241.5 155 258 152" fill="none" stroke="#627A45" stroke-width=".9" opacity=".34" /><path data-unit="botanical-notes.decor.continuity-spine.v1.motion-trail.v4" data-motion-role="flow-trail" d="M22 153C64.5 146 88.1 157 116.4 153C147.1 148 173.0 158 201.4 153C225.0 149 241.5 155 258 152" fill="none" stroke="#627A45" stroke-width="1.9" stroke-linecap="round" opacity=".94" stroke-dasharray="44.8 360"><animate attributeName="stroke-dashoffset" from="0" to="-404.8" dur="3.8s" begin="0s" repeatCount="indefinite"></animate></path><g data-unit="botanical-notes.decor.inherited-structure.v7"><g transform="translate(46 30) scale(.67)"><path d="M72 154C116 116 144 70 154 18" fill="none" stroke="#627A45" stroke-width="2" />
  <path d="M140 72C104 74 80 58 68 32C104 30 130 44 140 72ZM132 104C98 116 70 108 48 84C82 72 110 80 132 104ZM150 48C140 24 148 12 168 10C180 32 174 44 150 48Z" fill="#627A45" opacity=".78" />
  <circle cx="178" cy="72" r="7" fill="#D2A66B" /><circle cx="204" cy="52" r="4" fill="#D2A66B" /><circle cx="216" cy="84" r="5" fill="#D2A66B" />
  <path d="M188 126H252M202 136H238" fill="none" stroke="#29352B" stroke-width="1.1" /></g></g><g data-unit="botanical-notes.theme-cluster.v1" transform="translate(140 153) scale(0.48 0.48)"><g data-unit="botanical.sprig.assembled.v1" transform="translate(-24 0) scale(0.78)" opacity="1"><path data-unit="botanical.branch.skeleton.v1" d="M0 0C10-16 18-39 18-68C18-82 15-94 10-104" fill="none" stroke="#627A45" stroke-width="1.05" /><path data-unit="botanical.branch.secondary.v1" d="M13-28C28-34 37-43 44-56M17-49C4-57-4-68-8-80M17-69C29-75 37-84 40-94" fill="none" stroke="#627A45" stroke-width=".75" /><g data-unit="botanical.leaf.serrated.v1" transform="translate(14 -27) rotate(-20) scale(0.78)" opacity="1"><path d="M0 0L-5-5L-9-4L-10-9L-15-8L-14-13C-7-15-2-10 0 0Z" fill="#D2A66B" stroke="#627A45" stroke-width=".65" /><path d="M0 0L-15-5" fill="none" stroke="#627A45" stroke-width=".55" /><path d="M-5-4L-8-8M-8-6L-12-11" fill="none" stroke="#627A45" stroke-width=".45" opacity=".78" /></g><g data-unit="botanical.leaf.serrated.v1" transform="translate(26 -37) rotate(150) scale(0.72)" opacity="1"><path d="M0 0L-5-5L-9-4L-10-9L-15-8L-14-13C-7-15-2-10 0 0Z" fill="#D2A66B" stroke="#627A45" stroke-width=".65" /><path d="M0 0L-15-5" fill="none" stroke="#627A45" stroke-width=".55" /><path d="M-5-4L-8-8M-8-6L-12-11" fill="none" stroke="#627A45" stroke-width=".45" opacity=".78" /></g><g data-unit="botanical.leaf.serrated.v1" transform="translate(39 -51) rotate(155) scale(0.66)" opacity="1"><path d="M0 0L-5-5L-9-4L-10-9L-15-8L-14-13C-7-15-2-10 0 0Z" fill="#D2A66B" stroke="#627A45" stroke-width=".65" /><path d="M0 0L-15-5" fill="none" stroke="#627A45" stroke-width=".55" /><path d="M-5-4L-8-8M-8-6L-12-11" fill="none" stroke="#627A45" stroke-width=".45" opacity=".78" /></g><g data-unit="botanical.leaf.serrated.v1" transform="translate(17 -49) rotate(18) scale(0.74)" opacity="1"><path d="M0 0L-5-5L-9-4L-10-9L-15-8L-14-13C-7-15-2-10 0 0Z" fill="#D2A66B" stroke="#627A45" stroke-width=".65" /><path d="M0 0L-15-5" fill="none" stroke="#627A45" stroke-width=".55" /><path d="M-5-4L-8-8M-8-6L-12-11" fill="none" stroke="#627A45" stroke-width=".45" opacity=".78" /></g><g data-unit="botanical.leaf.serrated.v1" transform="translate(1 -63) rotate(-28) scale(0.72)" opacity="1"><path d="M0 0L-5-5L-9-4L-10-9L-15-8L-14-13C-7-15-2-10 0 0Z" fill="#D2A66B" stroke="#627A45" stroke-width=".65" /><path d="M0 0L-15-5" fill="none" stroke="#627A45" stroke-width=".55" /><path d="M-5-4L-8-8M-8-6L-12-11" fill="none" stroke="#627A45" stroke-width=".45" opacity=".78" /></g><g data-unit="botanical.leaf.serrated.v1" transform="translate(-6 -77) rotate(-18) scale(0.64)" opacity="1"><path d="M0 0L-5-5L-9-4L-10-9L-15-8L-14-13C-7-15-2-10 0 0Z" fill="#D2A66B" stroke="#627A45" stroke-width=".65" /><path d="M0 0L-15-5" fill="none" stroke="#627A45" stroke-width=".55" /><path d="M-5-4L-8-8M-8-6L-12-11" fill="none" stroke="#627A45" stroke-width=".45" opacity=".78" /></g><g data-unit="botanical.leaf.serrated.v1" transform="translate(18 -69) rotate(165) scale(0.7)" opacity="1"><path d="M0 0L-5-5L-9-4L-10-9L-15-8L-14-13C-7-15-2-10 0 0Z" fill="#D2A66B" stroke="#627A45" stroke-width=".65" /><path d="M0 0L-15-5" fill="none" stroke="#627A45" stroke-width=".55" /><path d="M-5-4L-8-8M-8-6L-12-11" fill="none" stroke="#627A45" stroke-width=".45" opacity=".78" /></g><g data-unit="botanical.leaf.serrated.v1" transform="translate(33 -84) rotate(150) scale(0.62)" opacity="1"><path d="M0 0L-5-5L-9-4L-10-9L-15-8L-14-13C-7-15-2-10 0 0Z" fill="#D2A66B" stroke="#627A45" stroke-width=".65" /><path d="M0 0L-15-5" fill="none" stroke="#627A45" stroke-width=".55" /><path d="M-5-4L-8-8M-8-6L-12-11" fill="none" stroke="#627A45" stroke-width=".45" opacity=".78" /></g><g data-unit="botanical.leaf.serrated.v1" transform="translate(11 -101) rotate(84) scale(0.62)" opacity="1"><path d="M0 0L-5-5L-9-4L-10-9L-15-8L-14-13C-7-15-2-10 0 0Z" fill="#D2A66B" stroke="#627A45" stroke-width=".65" /><path d="M0 0L-15-5" fill="none" stroke="#627A45" stroke-width=".55" /><path d="M-5-4L-8-8M-8-6L-12-11" fill="none" stroke="#627A45" stroke-width=".45" opacity=".78" /></g><g data-unit="botanical.berry.cluster.v1" fill="#D2A66B" stroke="#627A45" stroke-width=".45"><circle cx="42" cy="-57" r="2.8" /><circle cx="37" cy="-62" r="2.2" /><circle cx="-8" cy="-82" r="2.5" /></g><animateTransform attributeName="transform" type="rotate" values="0 0 0;5.6 0 0;0 0 0;-4.5 0 0;0 0 0" dur="4.8s" begin="0s" repeatCount="indefinite" additive="sum"></animateTransform></g><g data-unit="botanical.flower.five-petal.v1" transform="translate(30 -42) scale(0.68)" opacity="1"><ellipse cx="0" cy="-7" rx="4.3" ry="7.2" transform="rotate(0)" fill="#D2D9CC" stroke="#627A45" stroke-width=".55" /><ellipse cx="0" cy="-7" rx="4.3" ry="7.2" transform="rotate(72)" fill="#D2D9CC" stroke="#627A45" stroke-width=".55" /><ellipse cx="0" cy="-7" rx="4.3" ry="7.2" transform="rotate(144)" fill="#D2D9CC" stroke="#627A45" stroke-width=".55" /><ellipse cx="0" cy="-7" rx="4.3" ry="7.2" transform="rotate(216)" fill="#D2D9CC" stroke="#627A45" stroke-width=".55" /><ellipse cx="0" cy="-7" rx="4.3" ry="7.2" transform="rotate(288)" fill="#D2D9CC" stroke="#627A45" stroke-width=".55" /><circle cx="0" cy="0" r="2.8" fill="#D2A66B" stroke="#627A45" stroke-width=".5" /></g></g>
</svg>
