<svg xmlns="http://www.w3.org/2000/svg" viewBox="0 0 640 78" width="100%" role="img" aria-label="暗夜月相与金色地平线" style="display:block;width:100%;height:auto;overflow:visible;"><g data-layer="primary-symbol" data-unit="night.moon-medallion.v15"><circle cx="31" cy="31" r="20" fill="#26231F" stroke="#C6A85F" stroke-width="1"/><path d="M35 18C27 18 22 24 22 31C22 39 29 44 37 42C31 40 28 36 28 31C28 25 31 21 35 18Z" fill="#C6A85F"/><circle cx="41" cy="29" r="1.5" fill="#C6A85F"/></g><g data-layer="secondary-structure" data-unit="night.phase-arc.v15"><path d="M458 46C493 12 548 10 587 42" fill="none" stroke="#D8D2CA" stroke-width=".65"/><circle cx="472" cy="34" r="4" fill="#B95833"/><circle cx="505" cy="19" r="4.5" fill="#C6A85F"/><circle cx="545" cy="18" r="5" fill="#C6A85F"/><circle cx="578" cy="32" r="4" fill="#B95833"/></g><path data-layer="secondary-detail" data-unit="night.eight-point-star.v15" d="M526 31L529 39L537 42L529 45L526 53L523 45L515 42L523 39Z" fill="#C6A85F"/><path data-layer="continuous-path" data-unit="night.gold-horizon.v15" d="M56 64C114 48 159 48 211 62C263 76 318 72 366 59C414 46 454 50 495 63C540 77 584 70 636 56" fill="none" stroke="#C6A85F" stroke-width="1.15" stroke-linecap="round" opacity=".34" /><path data-unit="night.gold-horizon.v15.motion-trail.v4" data-motion-role="flow-trail" d="M56 64C114 48 159 48 211 62C263 76 318 72 366 59C414 46 454 50 495 63C540 77 584 70 636 56" fill="none" stroke="#C6A85F" stroke-width="2.15" stroke-linecap="round" opacity=".94" stroke-dasharray="102.4 803.84" /><circle data-layer="accent-nodes" data-unit="night.horizon-stop.v15" cx="636" cy="56" r="3.2" fill="#FFFFFF" stroke="#B95833" stroke-width="1"/></svg>
