<svg xmlns="http://www.w3.org/2000/svg" viewBox="0 0 750 160" width="100%" role="img" aria-label="深海终端文章尾部收束" style="display:block;width:100%;height:auto;">
<path data-unit="deep-sea-terminal.tail.continuity-spine.v1" d="M30 151C126.6 141 188.7 157 264.6 151C340.5 144 409.5 158 485.4 151C568.2 143 637.2 156 720 149" fill="none" stroke="#5FAE9E" stroke-width=".9" opacity=".9" /><path data-unit="deep-sea-terminal.tail.spine-echo.v1" d="M57.6 159 C188.7 155 257.7 161 347.4 158" fill="none" stroke="#C39A5E" stroke-width=".55" opacity=".62" /><g data-unit="deep-sea-terminal.tail.inherited-structure.v7"><g data-unit="technical.target.coordinate.v1" transform="translate(105 87) scale(0.78)" opacity="1"><g data-unit="technical.target.rotating-body.v4" data-motion-role="rotating-body"><circle cx="0" cy="0" r="30" fill="none" stroke="#5FAE9E" stroke-width=".8" /><circle cx="0" cy="0" r="19" fill="none" stroke="#5FAE9E" stroke-width=".65" opacity=".75" /><circle cx="0" cy="0" r="5" fill="#C39A5E" /><path d="M-38 0H38M0-38V38M-26-26L26 26M26-26L-26 26" fill="none" stroke="#5FAE9E" stroke-width=".55" opacity=".65" /></g><path d="M0 0L23-15" stroke="#C39A5E" stroke-width="1" /><circle cx="23" cy="-15" r="2.8" fill="#C39A5E" /></g><g data-unit="marine.coral.branch.v1" transform="translate(48 147) scale(0.78)" opacity="1"><path d="M0 0C2-18 0-36-5-54M-2-27C-17-34-22-46-23-60M-5-43C9-51 15-63 17-77M-15-39C-29-43-36-52-40-64" fill="none" stroke="#5FAE9E" stroke-width="1.2" stroke-linecap="round" /><g fill="#C39A5E"><circle cx="-5" cy="-54" r="2.4" /><circle cx="-23" cy="-60" r="2.4" /><circle cx="17" cy="-77" r="2.4" /><circle cx="-40" cy="-64" r="2.4" /></g></g><path data-unit="marine.tidal.ribbon.v1" d="M26 143C87 132 144 136 201 147C260 158 310 147 371 140C431 133 482 153 541 145C601 137 658 137 724 148" fill="none" stroke="#5FAE9E" stroke-width="1.05" opacity=".34" /><path data-unit="marine.tidal.ribbon.v1.motion-trail.v4" data-motion-role="flow-trail" d="M26 143C87 132 144 136 201 147C260 158 310 147 371 140C431 133 482 153 541 145C601 137 658 137 724 148" fill="none" stroke="#5FAE9E" stroke-width="2.05" stroke-linecap="round" opacity=".94" stroke-dasharray="120 942" /><path data-unit="marine.tidal.echo.v1" d="M26 154C92 147 151 150 209 159M542 157C601 148 660 150 724 160" fill="none" stroke="#30434D" stroke-width="0.75" opacity="1" /><g data-unit="marine.fish.loop.v4" data-motion-role="periodic-swim" data-loop-distance="750"><g data-unit="marine.fish.school.v1" fill="#C39A5E" data-motion-slot="tail-drift"><path d="M565 83C572 78 579 79 584 83C579 87 572 88 565 83ZM560 78L565 83L560 88Z" /><path d="M598 70C605 65 612 66 617 70C612 74 605 75 598 70ZM593 65L598 70L593 75Z" /><path d="M632 89C639 84 646 85 651 89C646 93 639 94 632 89ZM627 84L632 89L627 94Z" /></g><g data-unit="marine.fish.offscreen-copy.v4" transform="translate(-750 0)"><g data-unit="marine.fish.school.clone.v4" fill="#C39A5E"><path d="M565 83C572 78 579 79 584 83C579 87 572 88 565 83ZM560 78L565 83L560 88Z" /><path d="M598 70C605 65 612 66 617 70C612 74 605 75 598 70ZM593 65L598 70L593 75Z" /><path d="M632 89C639 84 646 85 651 89C646 93 639 94 632 89ZM627 84L632 89L627 94Z" /></g></g></g><g data-unit="marine.coral.branch.v1" transform="translate(700 149) scale(0.66)" opacity="1"><g transform="scale(-1 1)"><path d="M0 0C2-18 0-36-5-54M-2-27C-17-34-22-46-23-60M-5-43C9-51 15-63 17-77M-15-39C-29-43-36-52-40-64" fill="none" stroke="#5FAE9E" stroke-width="1.2" stroke-linecap="round" /><g fill="#C39A5E"><circle cx="-5" cy="-54" r="2.4" /><circle cx="-23" cy="-60" r="2.4" /><circle cx="17" cy="-77" r="2.4" /><circle cx="-40" cy="-64" r="2.4" /></g></g></g><circle data-unit="marine.signal.node.v1" cx="137" cy="67" r="3.2" fill="#C39A5E" /><circle data-unit="marine.tidal.node.v1" cx="519" cy="137" r="2.2" fill="#C39A5E" /></g>
</svg>
