<svg xmlns="http://www.w3.org/2000/svg" viewBox="0 0 280 180" width="100%" role="img" aria-label="新粗野章节标题复用装饰" style="display:block;width:100%;height:auto;">
<path data-unit="neo-brutal.decor.continuity-spine.v1" d="M22 153H88.1L102.2 146H177.8L191.9 153H258" fill="none" stroke="#1D1D1B" stroke-width=".9" opacity=".34" /><path data-unit="neo-brutal.decor.continuity-spine.v1.motion-trail.v4" data-motion-role="flow-trail" d="M22 153H88.1L102.2 146H177.8L191.9 153H258" fill="none" stroke="#1D1D1B" stroke-width="1.9" stroke-linecap="round" opacity=".94" stroke-dasharray="44.8 360" /><g data-unit="neo-brutal.decor.inherited-structure.v7"><g transform="translate(30 34)"><rect width="74" height="52" fill="#A9C8BC" /><rect x="12" y="12" width="74" height="52" fill="none" stroke="#1D1D1B" stroke-width="2.2" /><rect x="68" y="-8" width="34" height="12" fill="#B94A32" /></g>
  <g transform="translate(174 104) rotate(-5)"><rect width="66" height="22" fill="#1D1D1B" /><rect x="-12" y="-8" width="28" height="12" fill="#B94A32" /><path d="M52 -12L62 -2L72 -12L82 -2" fill="none" stroke="#B94A32" stroke-width="2" /></g>
  <circle cx="212" cy="48" r="15" fill="#B94A32" /></g><g data-unit="neo-brutal.theme-cluster.v1" transform="translate(140 153) scale(0.48 0.48)"><g data-unit="brutal.blocks.v1"><rect x="-62" y="-51" width="48" height="31" fill="#A9C8BC" /><rect x="-46" y="-65" width="56" height="36" fill="none" stroke="#1D1D1B" stroke-width="1.7" /><rect x="18" y="-39" width="26" height="17" fill="#B94A32" /></g><g data-unit="technical.target.coordinate.v1" transform="translate(61 -37) scale(0.43)" opacity="1"><g data-unit="technical.target.rotating-body.v4" data-motion-role="rotating-body"><circle cx="0" cy="0" r="30" fill="none" stroke="#B94A32" stroke-width=".8" /><circle cx="0" cy="0" r="19" fill="none" stroke="#B94A32" stroke-width=".65" opacity=".75" /><circle cx="0" cy="0" r="5" fill="#1D1D1B" /><path d="M-38 0H38M0-38V38M-26-26L26 26M26-26L-26 26" fill="none" stroke="#B94A32" stroke-width=".55" opacity=".65" /></g><path d="M0 0L23-15" stroke="#1D1D1B" stroke-width="1" /><circle cx="23" cy="-15" r="2.8" fill="#1D1D1B" /></g></g>
</svg>
