<svg xmlns="http://www.w3.org/2000/svg" viewBox="0 0 750 360" width="100%" role="img" aria-label="瑞士信号完整标题装饰" style="display:block;width:100%;height:auto;">
<path data-unit="swiss-signal.title.continuity-spine.v1" d="M30 326H223.2L264.6 319H485.4L526.8 326H720" fill="none" stroke="#3157A4" stroke-width=".9" opacity=".34" /><path data-unit="swiss-signal.title.continuity-spine.v1.motion-trail.v4" data-motion-role="flow-trail" d="M30 326H223.2L264.6 319H485.4L526.8 326H720" fill="none" stroke="#3157A4" stroke-width="1.9" stroke-linecap="round" opacity=".94" stroke-dasharray="120 942" /><path data-unit="swiss-signal.title.spine-echo.v1" d="M57.6 334 C188.7 330 257.7 336 347.4 333" fill="none" stroke="#D0B85A" stroke-width=".55" opacity=".62" /><g data-unit="swiss-signal.title.inherited-structure.v7"><path d="M72 50H330M420 50H674" fill="none" stroke="#1D1D1B" stroke-width="1.5" />
  <rect x="342" y="42" width="30" height="16" fill="#D0B85A" /><rect x="380" y="42" width="26" height="16" fill="#3157A4" />
  <path d="M72 90V278H108M674 90V150M674 224V278H626" fill="none" stroke="#1D1D1B" stroke-width="1.5" />
  <path d="M84 102V232" fill="none" stroke="#3157A4" stroke-width="3" />
  <circle cx="626" cy="98" r="30" fill="none" stroke="#3157A4" stroke-width="1.8" />
  <circle cx="626" cy="98" r="7" fill="#D0B85A" />
  <path d="M588 98H664M626 60V136" fill="none" stroke="#C8C7C2" stroke-width="1" />
  <path d="M110 300H486M510 300H674" fill="none" stroke="#1D1D1B" stroke-width="1.3" />
  <path d="M110 310H350" fill="none" stroke="#3157A4" stroke-width="2.4" />
  <g fill="#3157A4" opacity=".3"><circle cx="650" cy="172" r="3" /><circle cx="664" cy="172" r="3" /><circle cx="678" cy="172" r="3" /><circle cx="650" cy="186" r="3" /><circle cx="664" cy="186" r="3" /><circle cx="678" cy="186" r="3" /></g>
<g opacity=".76" transform="translate(68 42) scale(0.46)"><path d="M6 26H46M26 6V46" fill="none" stroke="#1D1D1B" stroke-width="1" /><rect x="22" y="22" width="8" height="8" fill="#D0B85A" /><rect x="38" y="8" width="10" height="5" fill="#3157A4" /></g></g><g data-unit="swiss-signal.theme-cluster.v1" transform="translate(86 326) scale(0.44 0.44)"><g data-unit="technical.target.coordinate.v1" transform="translate(-28 -40) scale(0.76)" opacity="1" data-motion-slot="title-pulse"><g data-unit="technical.target.rotating-body.v4" data-motion-role="rotating-body"><circle cx="0" cy="0" r="30" fill="none" stroke="#1D1D1B" stroke-width=".8" /><circle cx="0" cy="0" r="19" fill="none" stroke="#1D1D1B" stroke-width=".65" opacity=".75" /><circle cx="0" cy="0" r="5" fill="#3157A4" /><path d="M-38 0H38M0-38V38M-26-26L26 26M26-26L-26 26" fill="none" stroke="#1D1D1B" stroke-width=".55" opacity=".65" /></g><path d="M0 0L23-15" stroke="#3157A4" stroke-width="1" /><circle cx="23" cy="-15" r="2.8" fill="#3157A4" /></g><g data-unit="signal.data-bars.v1" fill="#1D1D1B"><rect x="18" y="-18" width="6" height="18" /><rect x="29" y="-32" width="6" height="32" /><rect x="40" y="-25" width="6" height="25" /><rect x="51" y="-42" width="6" height="42" /></g><circle data-unit="signal.node.v1" cx="68" cy="-34" r="5" fill="#D0B85A" /></g><g data-unit="swiss-signal.theme-cluster.v1" transform="translate(664 326) scale(-0.3432 0.3432)"><g data-unit="technical.target.coordinate.v1" transform="translate(-28 -40) scale(0.76)" opacity="1"><g data-unit="technical.target.rotating-body.v4" data-motion-role="rotating-body"><circle cx="0" cy="0" r="30" fill="none" stroke="#1D1D1B" stroke-width=".8" /><circle cx="0" cy="0" r="19" fill="none" stroke="#1D1D1B" stroke-width=".65" opacity=".75" /><circle cx="0" cy="0" r="5" fill="#3157A4" /><path d="M-38 0H38M0-38V38M-26-26L26 26M26-26L-26 26" fill="none" stroke="#1D1D1B" stroke-width=".55" opacity=".65" /></g><path d="M0 0L23-15" stroke="#3157A4" stroke-width="1" /><circle cx="23" cy="-15" r="2.8" fill="#3157A4" /></g><g data-unit="signal.data-bars.v1" fill="#1D1D1B"><rect x="18" y="-18" width="6" height="18" /><rect x="29" y="-32" width="6" height="32" /><rect x="40" y="-25" width="6" height="25" /><rect x="51" y="-42" width="6" height="42" /></g><circle data-unit="signal.node.v1" cx="68" cy="-34" r="5" fill="#D0B85A" /></g>
</svg>
