<svg xmlns="http://www.w3.org/2000/svg" viewBox="0 0 280 180" width="100%" role="img" aria-label="柑橘报告章节标题复用装饰" style="display:block;width:100%;height:auto;">
<path data-unit="citrus-report.decor.continuity-spine.v1" d="M22 153C64.5 146 88.1 157 116.4 153C147.1 148 173.0 158 201.4 153C225.0 149 241.5 155 258 152" fill="none" stroke="#65731F" stroke-width=".9" opacity=".34" /><path data-unit="citrus-report.decor.continuity-spine.v1.motion-trail.v4" data-motion-role="flow-trail" d="M22 153C64.5 146 88.1 157 116.4 153C147.1 148 173.0 158 201.4 153C225.0 149 241.5 155 258 152" fill="none" stroke="#65731F" stroke-width="1.9" stroke-linecap="round" opacity=".94" stroke-dasharray="44.8 360" /><g data-unit="citrus-report.decor.inherited-structure.v7"><g transform="translate(46 30) scale(.67)"><g data-unit="citrus.decor-primary.v3.assembled"><circle data-unit="citrus.decor-primary.v3.outer-rind" cx="134" cy="86" r="58" fill="none" stroke="#C87945" stroke-width="2" /><circle data-unit="citrus.decor-primary.v3.white-pith" cx="134" cy="86" r="48.72" fill="#FFFFFF" stroke="none" /><circle data-unit="citrus.decor-primary.v3.inner-pith-ring" cx="134" cy="86" r="48.72" fill="none" stroke="#65731F" stroke-width=".72" opacity=".78" /><path data-unit="citrus.decor-primary.v3.segment-fill" d="M134.32 79.01L136.00 41.97A44.08 44.08 0 0 1 163.72 53.45L138.72 80.83A6.99 6.99 0 0 0 134.32 79.01Z" fill="#C87945" opacity="0.31" /><path data-unit="citrus.decor-primary.v3.segment-fill" d="M139.17 81.28L166.55 56.28A44.08 44.08 0 0 1 178.03 84.00L140.99 85.68A6.99 6.99 0 0 0 139.17 81.28Z" fill="#C87945" opacity="0.18" /><path data-unit="citrus.decor-primary.v3.segment-fill" d="M140.99 86.32L178.03 88.00A44.08 44.08 0 0 1 166.55 115.72L139.17 90.72A6.99 6.99 0 0 0 140.99 86.32Z" fill="#C87945" opacity="0.31" /><path data-unit="citrus.decor-primary.v3.segment-fill" d="M138.72 91.17L163.72 118.55A44.08 44.08 0 0 1 136.00 130.03L134.32 92.99A6.99 6.99 0 0 0 138.72 91.17Z" fill="#C87945" opacity="0.18" /><path data-unit="citrus.decor-primary.v3.segment-fill" d="M133.68 92.99L132.00 130.03A44.08 44.08 0 0 1 104.28 118.55L129.28 91.17A6.99 6.99 0 0 0 133.68 92.99Z" fill="#C87945" opacity="0.31" /><path data-unit="citrus.decor-primary.v3.segment-fill" d="M128.83 90.72L101.45 115.72A44.08 44.08 0 0 1 89.97 88.00L127.01 86.32A6.99 6.99 0 0 0 128.83 90.72Z" fill="#C87945" opacity="0.18" /><path data-unit="citrus.decor-primary.v3.segment-fill" d="M127.01 85.68L89.97 84.00A44.08 44.08 0 0 1 101.45 56.28L128.83 81.28A6.99 6.99 0 0 0 127.01 85.68Z" fill="#C87945" opacity="0.31" /><path data-unit="citrus.decor-primary.v3.segment-fill" d="M129.28 80.83L104.28 53.45A44.08 44.08 0 0 1 132.00 41.97L133.68 79.01A6.99 6.99 0 0 0 129.28 80.83Z" fill="#C87945" opacity="0.18" /><path data-unit="citrus.decor-primary.v3.membranes" d="M134.00 80.52L134.00 38.74M137.88 82.12L167.42 52.58M139.48 86.00L181.26 86.00M137.88 89.88L167.42 119.42M134.00 91.48L134.00 133.26M130.12 89.88L100.58 119.42M128.52 86.00L86.74 86.00M130.12 82.12L100.58 52.58" fill="none" stroke="#65731F" stroke-width=".78" stroke-linecap="round" /><circle data-unit="citrus.decor-primary.v3.center" cx="134" cy="86" r="5.22" fill="#FFFFFF" stroke="#65731F" stroke-width=".72" /></g>
  <path d="M210 138V66M228 138V86M246 138V42" fill="none" stroke="#20241F" stroke-width="1.8" />
  <circle cx="246" cy="36" r="6" fill="#C87945" /></g></g><g data-unit="citrus-report.theme-cluster.v1" transform="translate(140 153) scale(0.48 0.48)"><g data-unit="citrus.slice.v2" transform="translate(-30 -42)">
<circle data-unit="citrus.rind.v2" r="29" fill="none" stroke="#C87945" stroke-width="1.2" />
<circle data-unit="citrus.pith.v2" r="23" fill="none" stroke="#65731F" stroke-width=".62" opacity=".72" />
<g data-unit="citrus.segment-fill.v2" fill="#C87945" opacity=".24">
  <path d="M0 0L0-21A21 21 0 0 1 18.2-10.5Z" />
  <path d="M0 0L18.2-10.5A21 21 0 0 1 18.2 10.5Z" />
  <path d="M0 0L-18.2 10.5A21 21 0 0 1-18.2-10.5Z" />
</g>
<g data-unit="citrus.segment-lines.v2" fill="none" stroke="#65731F" stroke-width=".62" stroke-linecap="round">
  <path d="M0 0V-21M0 0L18.2-10.5M0 0L18.2 10.5M0 0V21M0 0L-18.2 10.5M0 0L-18.2-10.5" />
</g>
<circle data-unit="citrus.center.v2" r="2.2" fill="#D2D7CD" stroke="#65731F" stroke-width=".45" />
</g><g data-unit="botanical.leaf.round.v1" transform="translate(28 -30) rotate(18) scale(1.05)" opacity="1"><path d="M0 0C-4-10-14-12-17-3C-18 5-8 10 0 0Z" fill="#C87945" stroke="#65731F" stroke-width=".65" /><path d="M0 0L-15-5" fill="none" stroke="#65731F" stroke-width=".55" /><path d="M-5-1L-10-6M-6 2L-12 5" fill="none" stroke="#65731F" stroke-width=".45" opacity=".78" /></g><g data-unit="botanical.leaf.round.v1" transform="translate(52 -20) rotate(198) scale(0.85)" opacity="1"><path d="M0 0C-4-10-14-12-17-3C-18 5-8 10 0 0Z" fill="#C87945" stroke="#65731F" stroke-width=".65" /><path d="M0 0L-15-5" fill="none" stroke="#65731F" stroke-width=".55" /><path d="M-5-1L-10-6M-6 2L-12 5" fill="none" stroke="#65731F" stroke-width=".45" opacity=".78" /></g><circle data-unit="report.metric-node.v1" cx="66" cy="-7" r="4" fill="#20241F" /></g>
</svg>
