<svg xmlns="http://www.w3.org/2000/svg" viewBox="0 0 750 360" width="100%" role="img" aria-label="柑橘报告完整标题装饰" style="display:block;width:100%;height:auto;">
<path data-unit="citrus-report.title.continuity-spine.v1" d="M30 326C154.2 319 223.2 330 306.0 326C395.7 321 471.6 331 554.4 326C623.4 322 671.7 328 720 325" fill="none" stroke="#65731F" stroke-width=".9" opacity=".34" /><path data-unit="citrus-report.title.continuity-spine.v1.motion-trail.v4" data-motion-role="flow-trail" d="M30 326C154.2 319 223.2 330 306.0 326C395.7 321 471.6 331 554.4 326C623.4 322 671.7 328 720 325" fill="none" stroke="#65731F" stroke-width="1.9" stroke-linecap="round" opacity=".94" stroke-dasharray="120 942" /><path data-unit="citrus-report.title.spine-echo.v1" d="M57.6 334 C188.7 330 257.7 336 347.4 333" fill="none" stroke="#C87945" stroke-width=".55" opacity=".62" /><g data-unit="citrus-report.title.inherited-structure.v7"><path d="M78 58H310M440 58H672" fill="none" stroke="#20241F" stroke-width="1.3" />
  <g data-unit="citrus.title-primary.v3.assembled" data-motion-slot="title-pulse"><circle data-unit="citrus.title-primary.v3.outer-rind" cx="375" cy="70" r="42" fill="none" stroke="#C87945" stroke-width="2" /><circle data-unit="citrus.title-primary.v3.white-pith" cx="375" cy="70" r="35.7" fill="#FFFFFF" stroke="none" /><circle data-unit="citrus.title-primary.v3.inner-pith-ring" cx="375" cy="70" r="35.7" fill="none" stroke="#65731F" stroke-width=".72" opacity=".78" /><path data-unit="citrus.title-primary.v3.segment-fill" d="M375.31 64.10L376.71 37.28A32.76 32.76 0 0 1 396.92 45.65L378.95 65.61A5.91 5.91 0 0 0 375.31 64.10Z" fill="#C87945" opacity="0.31" /><path data-unit="citrus.title-primary.v3.segment-fill" d="M379.39 66.05L399.35 48.08A32.76 32.76 0 0 1 407.72 68.29L380.90 69.69A5.91 5.91 0 0 0 379.39 66.05Z" fill="#C87945" opacity="0.18" /><path data-unit="citrus.title-primary.v3.segment-fill" d="M380.90 70.31L407.72 71.71A32.76 32.76 0 0 1 399.35 91.92L379.39 73.95A5.91 5.91 0 0 0 380.90 70.31Z" fill="#C87945" opacity="0.31" /><path data-unit="citrus.title-primary.v3.segment-fill" d="M378.95 74.39L396.92 94.35A32.76 32.76 0 0 1 376.71 102.72L375.31 75.90A5.91 5.91 0 0 0 378.95 74.39Z" fill="#C87945" opacity="0.18" /><path data-unit="citrus.title-primary.v3.segment-fill" d="M374.69 75.90L373.29 102.72A32.76 32.76 0 0 1 353.08 94.35L371.05 74.39A5.91 5.91 0 0 0 374.69 75.90Z" fill="#C87945" opacity="0.31" /><path data-unit="citrus.title-primary.v3.segment-fill" d="M370.61 73.95L350.65 91.92A32.76 32.76 0 0 1 342.28 71.71L369.10 70.31A5.91 5.91 0 0 0 370.61 73.95Z" fill="#C87945" opacity="0.18" /><path data-unit="citrus.title-primary.v3.segment-fill" d="M369.10 69.69L342.28 68.29A32.76 32.76 0 0 1 350.65 48.08L370.61 66.05A5.91 5.91 0 0 0 369.10 69.69Z" fill="#C87945" opacity="0.31" /><path data-unit="citrus.title-primary.v3.segment-fill" d="M371.05 65.61L353.08 45.65A32.76 32.76 0 0 1 373.29 37.28L374.69 64.10A5.91 5.91 0 0 0 371.05 65.61Z" fill="#C87945" opacity="0.18" /><path data-unit="citrus.title-primary.v3.membranes" d="M375.00 65.37L375.00 35.37M378.27 66.73L399.49 45.51M379.63 70.00L409.63 70.00M378.27 73.27L399.49 94.49M375.00 74.63L375.00 104.63M371.73 73.27L350.51 94.49M370.37 70.00L340.37 70.00M371.73 66.73L350.51 45.51" fill="none" stroke="#65731F" stroke-width=".78" stroke-linecap="round" /><circle data-unit="citrus.title-primary.v3.center" cx="375" cy="70" r="4.41" fill="#FFFFFF" stroke="#65731F" stroke-width=".72" /></g>
  <path d="M92 118V304M658 118V304" fill="none" stroke="#D2D7CD" stroke-width="1.1" />
  <path d="M112 286L184 274L250 292L322 268L392 284L476 258L552 276L632 252" fill="none" stroke="#65731F" stroke-width="1.8" />
  <g fill="#C87945"><circle cx="184" cy="274" r="4" /><circle cx="322" cy="268" r="4" /><circle cx="476" cy="258" r="4" /><circle cx="632" cy="252" r="4" /></g>
  <path d="M112 304H638M112 304V314M184 304V310M256 304V314M328 304V310M400 304V314M472 304V310M544 304V314M616 304V310" fill="none" stroke="#20241F" stroke-width="1" /></g><g data-unit="citrus-report.theme-cluster.v1" transform="translate(86 326) scale(0.44 0.44)"><g data-unit="citrus.slice.v2" transform="translate(-30 -42)">
<circle data-unit="citrus.rind.v2" r="29" fill="none" stroke="#C87945" stroke-width="1.2" />
<circle data-unit="citrus.pith.v2" r="23" fill="none" stroke="#65731F" stroke-width=".62" opacity=".72" />
<g data-unit="citrus.segment-fill.v2" fill="#C87945" opacity=".24">
  <path d="M0 0L0-21A21 21 0 0 1 18.2-10.5Z" />
  <path d="M0 0L18.2-10.5A21 21 0 0 1 18.2 10.5Z" />
  <path d="M0 0L-18.2 10.5A21 21 0 0 1-18.2-10.5Z" />
</g>
<g data-unit="citrus.segment-lines.v2" fill="none" stroke="#65731F" stroke-width=".62" stroke-linecap="round">
  <path d="M0 0V-21M0 0L18.2-10.5M0 0L18.2 10.5M0 0V21M0 0L-18.2 10.5M0 0L-18.2-10.5" />
</g>
<circle data-unit="citrus.center.v2" r="2.2" fill="#D2D7CD" stroke="#65731F" stroke-width=".45" />
</g><g data-unit="botanical.leaf.round.v1" transform="translate(28 -30) rotate(18) scale(1.05)" opacity="1"><path d="M0 0C-4-10-14-12-17-3C-18 5-8 10 0 0Z" fill="#C87945" stroke="#65731F" stroke-width=".65" /><path d="M0 0L-15-5" fill="none" stroke="#65731F" stroke-width=".55" /><path d="M-5-1L-10-6M-6 2L-12 5" fill="none" stroke="#65731F" stroke-width=".45" opacity=".78" /></g><g data-unit="botanical.leaf.round.v1" transform="translate(52 -20) rotate(198) scale(0.85)" opacity="1"><path d="M0 0C-4-10-14-12-17-3C-18 5-8 10 0 0Z" fill="#C87945" stroke="#65731F" stroke-width=".65" /><path d="M0 0L-15-5" fill="none" stroke="#65731F" stroke-width=".55" /><path d="M-5-1L-10-6M-6 2L-12 5" fill="none" stroke="#65731F" stroke-width=".45" opacity=".78" /></g><circle data-unit="report.metric-node.v1" cx="66" cy="-7" r="4" fill="#20241F" /></g><g data-unit="citrus-report.theme-cluster.v1" transform="translate(664 326) scale(-0.3432 0.3432)"><g data-unit="citrus.slice.v2" transform="translate(-30 -42)">
<circle data-unit="citrus.rind.v2" r="29" fill="none" stroke="#C87945" stroke-width="1.2" />
<circle data-unit="citrus.pith.v2" r="23" fill="none" stroke="#65731F" stroke-width=".62" opacity=".72" />
<g data-unit="citrus.segment-fill.v2" fill="#C87945" opacity=".24">
  <path d="M0 0L0-21A21 21 0 0 1 18.2-10.5Z" />
  <path d="M0 0L18.2-10.5A21 21 0 0 1 18.2 10.5Z" />
  <path d="M0 0L-18.2 10.5A21 21 0 0 1-18.2-10.5Z" />
</g>
<g data-unit="citrus.segment-lines.v2" fill="none" stroke="#65731F" stroke-width=".62" stroke-linecap="round">
  <path d="M0 0V-21M0 0L18.2-10.5M0 0L18.2 10.5M0 0V21M0 0L-18.2 10.5M0 0L-18.2-10.5" />
</g>
<circle data-unit="citrus.center.v2" r="2.2" fill="#D2D7CD" stroke="#65731F" stroke-width=".45" />
</g><g data-unit="botanical.leaf.round.v1" transform="translate(28 -30) rotate(18) scale(1.05)" opacity="1"><path d="M0 0C-4-10-14-12-17-3C-18 5-8 10 0 0Z" fill="#C87945" stroke="#65731F" stroke-width=".65" /><path d="M0 0L-15-5" fill="none" stroke="#65731F" stroke-width=".55" /><path d="M-5-1L-10-6M-6 2L-12 5" fill="none" stroke="#65731F" stroke-width=".45" opacity=".78" /></g><g data-unit="botanical.leaf.round.v1" transform="translate(52 -20) rotate(198) scale(0.85)" opacity="1"><path d="M0 0C-4-10-14-12-17-3C-18 5-8 10 0 0Z" fill="#C87945" stroke="#65731F" stroke-width=".65" /><path d="M0 0L-15-5" fill="none" stroke="#65731F" stroke-width=".55" /><path d="M-5-1L-10-6M-6 2L-12 5" fill="none" stroke="#65731F" stroke-width=".45" opacity=".78" /></g><circle data-unit="report.metric-node.v1" cx="66" cy="-7" r="4" fill="#20241F" /></g>
</svg>
