<svg xmlns="http://www.w3.org/2000/svg" viewBox="0 0 750 360" width="100%" role="img" aria-label="珊瑚杂志完整标题装饰" style="display:block;width:100%;height:auto;">
<path data-unit="coral-zine.title.continuity-spine.v1" d="M30 326C154.2 319 223.2 330 306.0 326C395.7 321 471.6 331 554.4 326C623.4 322 671.7 328 720 325" fill="none" stroke="#B95054" stroke-width=".9" opacity=".34" /><path data-unit="coral-zine.title.continuity-spine.v1.motion-trail.v4" data-motion-role="flow-trail" d="M30 326C154.2 319 223.2 330 306.0 326C395.7 321 471.6 331 554.4 326C623.4 322 671.7 328 720 325" fill="none" stroke="#B95054" stroke-width="1.9" stroke-linecap="round" opacity=".94" stroke-dasharray="120 942" /><path data-unit="coral-zine.title.spine-echo.v1" d="M57.6 334 C188.7 330 257.7 336 347.4 333" fill="none" stroke="#E4B1A6" stroke-width=".55" opacity=".62" /><g data-unit="coral-zine.title.inherited-structure.v7"><path d="M82 68L210 50L250 72L388 48L432 72L664 54" fill="none" stroke="#402D33" stroke-width="1.5" />
  <path d="M86 96V282L176 296L244 278L334 298L420 280L510 300L660 282V96" fill="none" stroke="#E9D8D4" stroke-width="1.2" />
  <circle cx="132" cy="92" r="34" fill="#E4B1A6" opacity=".55" />
  <circle cx="620" cy="110" r="48" fill="#B95054" opacity=".18" />
  <circle cx="620" cy="110" r="18" fill="#B95054" opacity=".8" />
  <path d="M104 130C132 110 160 112 178 136C198 160 224 160 248 138" fill="none" stroke="#B95054" stroke-width="2" />
  <path d="M500 258C536 222 574 220 610 254C634 276 656 276 682 256" fill="none" stroke="#B95054" stroke-width="1.8" />
  <path d="M92 320H238M266 320H486M514 320H658" fill="none" stroke="#402D33" stroke-width="1.2" stroke-dasharray="8 7" />
  <rect x="246" y="42" width="118" height="20" fill="#B95054" opacity=".78" transform="rotate(-3 305 52)" />
<g opacity=".76" transform="translate(632 34) scale(0.46)"><circle cx="18" cy="22" r="10" fill="#B95054" opacity=".8" /><circle cx="34" cy="30" r="12" fill="#E4B1A6" opacity=".48" /><path d="M8 44C20 34 34 36 48 46" fill="none" stroke="#B95054" stroke-width="1.1" /></g></g><g data-unit="coral-zine.theme-cluster.v1" transform="translate(86 326) scale(0.44 0.44)"><g data-unit="botanical.flower.five-petal.v1" transform="translate(-34 -47) scale(1.1)" opacity="1"><ellipse cx="0" cy="-7" rx="4.3" ry="7.2" transform="rotate(0)" fill="#E4B1A6" stroke="#402D33" stroke-width=".55" /><ellipse cx="0" cy="-7" rx="4.3" ry="7.2" transform="rotate(72)" fill="#E4B1A6" stroke="#402D33" stroke-width=".55" /><ellipse cx="0" cy="-7" rx="4.3" ry="7.2" transform="rotate(144)" fill="#E4B1A6" stroke="#402D33" stroke-width=".55" /><ellipse cx="0" cy="-7" rx="4.3" ry="7.2" transform="rotate(216)" fill="#E4B1A6" stroke="#402D33" stroke-width=".55" /><ellipse cx="0" cy="-7" rx="4.3" ry="7.2" transform="rotate(288)" fill="#E4B1A6" stroke="#402D33" stroke-width=".55" /><circle cx="0" cy="0" r="2.8" fill="#B95054" stroke="#402D33" stroke-width=".5" /></g><g data-unit="coral.polyp-colony.v13" transform="translate(44 0) scale(0.67)" opacity="1" data-motion-slot="title-drift"><path data-unit="coral.branch-skeleton.v13" d="M0 0C2-18 0-36-5-54M-2-27C-17-34-22-46-23-60M-5-43C9-51 15-63 17-77M-15-39C-29-43-36-52-40-64" fill="none" stroke="#B95054" stroke-width="1.15" stroke-linecap="round" /><path data-unit="coral.polyp-fans.v13" d="M-11-53C-7-59-2-59 2-54M-29-58C-25-65-20-66-16-60M10-75C15-82 20-82 24-76M-47-62C-42-69-36-70-32-64" fill="none" stroke="#E4B1A6" stroke-width="1.05" stroke-linecap="round" /><g data-unit="coral.polyp-cups.v13" fill="#E4B1A6" stroke="#402D33" stroke-width=".38"><path d="M-11-53Q-5-48 2-54Q-5-44-11-53Z" /><path d="M-29-58Q-23-53-16-60Q-22-49-29-58Z" /><path d="M10-75Q17-69 24-76Q17-64 10-75Z" /><path d="M-47-62Q-40-56-32-64Q-40-51-47-62Z" /></g></g><g data-unit="zine.dot.triplet.v1" fill="#402D33"><circle cx="3" cy="-16" r="2" /><circle cx="12" cy="-13" r="1.5" /><circle cx="20" cy="-10" r="1" /></g></g><g data-unit="coral-zine.theme-cluster.v1" transform="translate(664 326) scale(-0.3432 0.3432)"><g data-unit="botanical.flower.five-petal.v1" transform="translate(-34 -47) scale(1.1)" opacity="1"><ellipse cx="0" cy="-7" rx="4.3" ry="7.2" transform="rotate(0)" fill="#E4B1A6" stroke="#402D33" stroke-width=".55" /><ellipse cx="0" cy="-7" rx="4.3" ry="7.2" transform="rotate(72)" fill="#E4B1A6" stroke="#402D33" stroke-width=".55" /><ellipse cx="0" cy="-7" rx="4.3" ry="7.2" transform="rotate(144)" fill="#E4B1A6" stroke="#402D33" stroke-width=".55" /><ellipse cx="0" cy="-7" rx="4.3" ry="7.2" transform="rotate(216)" fill="#E4B1A6" stroke="#402D33" stroke-width=".55" /><ellipse cx="0" cy="-7" rx="4.3" ry="7.2" transform="rotate(288)" fill="#E4B1A6" stroke="#402D33" stroke-width=".55" /><circle cx="0" cy="0" r="2.8" fill="#B95054" stroke="#402D33" stroke-width=".5" /></g><g data-unit="coral.polyp-colony.v13" transform="translate(44 0) scale(0.67)" opacity="1"><path data-unit="coral.branch-skeleton.v13" d="M0 0C2-18 0-36-5-54M-2-27C-17-34-22-46-23-60M-5-43C9-51 15-63 17-77M-15-39C-29-43-36-52-40-64" fill="none" stroke="#B95054" stroke-width="1.15" stroke-linecap="round" /><path data-unit="coral.polyp-fans.v13" d="M-11-53C-7-59-2-59 2-54M-29-58C-25-65-20-66-16-60M10-75C15-82 20-82 24-76M-47-62C-42-69-36-70-32-64" fill="none" stroke="#E4B1A6" stroke-width="1.05" stroke-linecap="round" /><g data-unit="coral.polyp-cups.v13" fill="#E4B1A6" stroke="#402D33" stroke-width=".38"><path d="M-11-53Q-5-48 2-54Q-5-44-11-53Z" /><path d="M-29-58Q-23-53-16-60Q-22-49-29-58Z" /><path d="M10-75Q17-69 24-76Q17-64 10-75Z" /><path d="M-47-62Q-40-56-32-64Q-40-51-47-62Z" /></g></g><g data-unit="zine.dot.triplet.v1" fill="#402D33"><circle cx="3" cy="-16" r="2" /><circle cx="12" cy="-13" r="1.5" /><circle cx="20" cy="-10" r="1" /></g></g>
<path data-unit="coral.paper-facets.v13" d="M118 299L154 286L177 307L139 319ZM585 296L618 282L640 302L606 316Z" fill="#E4B1A6" opacity=".24" stroke="#B95054" stroke-width=".48" />
</svg>
